<svg width="280.2699951171875px" height="66.21875px" xmlns="http://www.w3.org/2000/svg" viewBox="109.86500244140626 41.890625 280.2699951171875 66.21875" style="background: rgba(0, 0, 0, 0);" preserveAspectRatio="xMidYMid"><defs><linearGradient id="editing-shiny-gradient" x1="0.04322727117869957" x2="0.9567727288213004" y1="0.2966316784620999" y2="0.7033683215379001" gradientUnits="objectBoundingBox"><stop offset="0.0" stop-color="#bb9e59"></stop><stop offset="0.5" stop-color="#ffb200"></stop><stop offset="1.0" stop-color="#5a1a80"></stop></linearGradient><linearGradient id="editing-shiny-gradient2" x1="0" x2="0" y1="0" y2="1"><stop offset="0.2" stop-color="#fff" stop-opacity="0.8"></stop><stop offset="0.8" stop-color="#fff" stop-opacity="0"></stop></linearGradient><filter id="editing-shiny2" x="-100%" y="-100%" width="300%" height="300%"><feMorphology operator="erode" radius="2"></feMorphology></filter><filter id="editing-shiny" x="-100%" y="-100%" width="300%" height="300%"><feFlood flood-color="#fff" result="flood"></feFlood><feConvolveMatrix in="SourceGraphic" result="conv" order="8,8" divisor="1" kernelMatrix="0 0 0 0 0 0 0 0 0 0 0 1 1 0 0 0 0 0 0 1 1 0 0 0 0 0 1 0 0 1 0 0 0 0 1 0 0 1 0 0 0 1 0 0 0 0 1 0 0 1 1 0 0 1 1 0 0 0 0 1 1 0 0 0 "></feConvolveMatrix><feOffset dx="0" dy="4" in="conv" result="offset"></feOffset><feComposite operator="in" in="flood" in2="offset" result="comp"></feComposite><feGaussianBlur in="offset" stdDeviation="3" result="shadow"></feGaussianBlur><feColorMatrix in="shadow" type="matrix" values="0.7 0 0 0 0  0 0.7 0 0 0  0 0 0.7 0 0  0 0 0 0.3 0" result="dark-shadow"></feColorMatrix><feOffset dx="0" dy="4" in="dark-shadow" result="offset-shadow"></feOffset><feOffset dx="0" dy="2" in="conv" result="offset-2"></feOffset><feComposite operator="out" in="offset" in2="offset-2" result="edge-diff"></feComposite><feGaussianBlur in="edge-diff" stdDeviation="1" result="edge-blur"></feGaussianBlur><feColorMatrix in="edge-blur" result="edge-shadow" type="matrix" values="0 0 0 0 0  0 0 0 0 0  0 0 0 0 0  0 0 0 0.5 0"></feColorMatrix><feComposite operator="in" in="edge-shadow" in2="offset" result="edge-shadow-in"></feComposite><feOffset dx="0" dy="1" in="edge-shadow-in" result="edge-shadow-final"></feOffset><feMerge result="out"><feMergeNode in="offset-shadow"></feMergeNode><feMergeNode in="comp"></feMergeNode><feMergeNode in="edge-shadow-final"></feMergeNode><feMergeNode in="SourceGraphic"></feMergeNode></feMerge></filter></defs><g filter="url(#editing-shiny)"><g transform="translate(153.78312802314758, 85.8828125)"><path d="M1.22-17.98L1.22-17.98L1.22-17.98Q2.06-19.72 4.39-19.72L4.39-19.72L4.39-19.72Q6.73-19.72 7.82-18.37L7.82-18.37L7.82-18.37Q8.90-17.02 8.90-13.92L8.90-13.92L8.90-3.57L15.95-19.11L19.40-19.11L10.38 0L3.60 0L2.73-13.92L2.73-13.92Q2.64-15.46 2.22-16.50L2.22-16.50L2.22-16.50Q1.80-17.55 1.22-17.98ZM25.20-1.59L25.20-1.59L25.20-1.59Q24.30 0.58 21.43 0.58L21.43 0.58L21.43 0.58Q19.95 0.58 19.02-0.43L19.02-0.43L19.02-0.43Q18.24-1.33 18.24-2.23L18.24-2.23L18.24-2.23Q18.24-4.58 19.31-9.16L19.31-9.16L20.39-14.79L26.27-15.37L24.51-6.21L24.51-6.21Q24.01-4.06 24.01-3.31L24.01-3.31L24.01-3.31Q24.01-1.65 25.20-1.59ZM20.91-18.82L20.91-18.82L20.91-18.82Q20.91-19.95 21.85-20.56L21.85-20.56L21.85-20.56Q22.79-21.17 24.16-21.17L24.16-21.17L24.16-21.17Q25.52-21.17 26.35-20.56L26.35-20.56L26.35-20.56Q27.17-19.95 27.17-18.82L27.17-18.82L27.17-18.82Q27.17-17.69 26.26-17.11L26.26-17.11L26.26-17.11Q25.35-16.53 23.98-16.53L23.98-16.53L23.98-16.53Q22.62-16.53 21.76-17.11L21.76-17.11L21.76-17.11Q20.91-17.69 20.91-18.82ZM41.91-12.06L41.91-12.06L41.91-12.06Q41.91-10.85 40.89-10.09L40.89-10.09L40.89-10.09Q39.88-9.34 38.22-9.34L38.22-9.34L38.22-9.34Q37.53-9.34 37.12-9.54L37.12-9.54L37.12-9.54Q37.44-10.29 37.54-11.24L37.54-11.24L37.54-11.24Q37.64-12.18 37.64-12.44L37.64-12.44L37.64-12.44Q37.64-13.66 36.80-13.66L36.80-13.66L36.80-13.66Q36.22-13.66 35.57-12.93L35.57-12.93L35.57-12.93Q34.92-12.21 34.37-11.08L34.37-11.08L34.37-11.08Q33.15-8.47 33.15-5.83L33.15-5.83L33.15-5.83Q33.15-4.38 33.70-3.73L33.70-3.73L33.70-3.73Q34.25-3.07 35.47-3.07L35.47-3.07L35.47-3.07Q37.15-3.07 38.48-4.47L38.48-4.47L38.48-4.47Q38.86-4.90 39.06-5.39L39.06-5.39L39.06-5.39Q40.17-4.81 40.17-3.22L40.17-3.22L40.17-3.22Q40.17-1.59 38.37-0.52L38.37-0.52L38.37-0.52Q36.51 0.58 33.55 0.58L33.55 0.58L33.55 0.58Q27.67 0.58 27.67-5.66L27.67-5.66L27.67-5.66Q27.67-10.21 30.25-12.82L30.25-12.82L30.25-12.82Q32.74-15.37 37.32-15.37L37.32-15.37L37.32-15.37Q41.91-15.37 41.91-12.06ZM43.15-2.90L43.15-2.90L43.15-2.90Q43.15-3.68 43.56-5.66L43.56-5.66L45.09-13.49L43.38-13.49L43.50-14.36L43.50-14.36Q46.98-15.40 50.34-17.95L50.34-17.95L51.74-17.95L51.04-14.79L53.30-14.79L53.04-13.49L50.81-13.49L49.33-5.66L49.33-5.66Q48.95-3.86 48.95-3.25L48.95-3.25L48.95-3.25Q48.95-1.86 50.17-1.57L50.17-1.57L50.17-1.57Q49.88-0.58 48.84 0L48.84 0L48.84 0Q47.79 0.58 46.31 0.58L46.31 0.58L46.31 0.58Q44.83 0.58 43.99-0.35L43.99-0.35L43.99-0.35Q43.15-1.28 43.15-2.90ZM59.36 0.58L59.36 0.58L59.36 0.58Q52.98 0.58 52.98-5.42L52.98-5.42L52.98-5.42Q52.98-9.69 55.33-12.44L55.33-12.44L55.33-12.44Q57.83-15.37 62.15-15.37L62.15-15.37L62.15-15.37Q65.28-15.37 66.87-13.92L66.87-13.92L66.87-13.92Q68.47-12.47 68.47-9.43L68.47-9.43L68.47-9.43Q68.47-4.79 65.98-2.09L65.98-2.09L65.98-2.09Q63.54 0.58 59.36 0.58ZM60.12-12.04L60.12-12.04L60.12-12.04Q59.77-11.25 59.49-10.08L59.49-10.08L59.49-10.08Q59.22-8.90 58.87-7.05L58.87-7.05L58.87-7.05Q58.52-5.19 58.52-2.90L58.52-2.90L58.52-2.90Q58.52-2.15 58.77-1.65L58.77-1.65L58.77-1.65Q59.02-1.16 59.68-1.16L59.68-1.16L59.68-1.16Q60.35-1.16 60.77-1.48L60.77-1.48L60.77-1.48Q61.19-1.80 61.51-2.55L61.51-2.55L61.51-2.55Q62.09-3.89 62.55-6.37L62.55-6.37L62.55-6.37Q63.02-8.85 63.06-9.92L63.06-9.92L63.06-9.92Q63.10-10.99 63.10-11.79L63.10-11.79L63.10-11.79Q63.10-12.59 62.87-13.11L62.87-13.11L62.87-13.11Q62.64-13.63 61.99-13.63L61.99-13.63L61.99-13.63Q61.34-13.63 60.90-13.22L60.90-13.22L60.90-13.22Q60.47-12.82 60.12-12.04ZM79.26-8.15L79.26-8.15L79.26-8.15Q80.30-10.01 80.30-11.89L80.30-11.89L80.30-11.89Q80.30-13.14 79.40-13.14L79.40-13.14L79.40-13.14Q78.71-13.14 77.98-11.95L77.98-11.95L77.98-11.95Q77.23-10.76 77.00-9.22L77.00-9.22L75.49 0L69.48 0.58L72.44-14.79L77.23-15.37L76.70-12.44L76.70-12.44Q78.13-15.37 81.32-15.37L81.32-15.37L81.32-15.37Q83.00-15.37 83.91-14.50L83.91-14.50L83.91-14.50Q84.83-13.63 84.83-11.85L84.83-11.85L84.83-11.85Q84.83-10.06 83.65-8.93L83.65-8.93L83.65-8.93Q82.48-7.80 80.47-7.80L80.47-7.80L80.47-7.80Q79.61-7.80 79.26-8.15ZM92.25-1.59L92.25-1.59L92.25-1.59Q91.35 0.58 88.48 0.58L88.48 0.58L88.48 0.58Q87.00 0.58 86.07-0.43L86.07-0.43L86.07-0.43Q85.29-1.33 85.29-2.23L85.29-2.23L85.29-2.23Q85.29-4.58 86.36-9.16L86.36-9.16L87.43-14.79L93.32-15.37L91.55-6.21L91.55-6.21Q91.06-4.06 91.06-3.31L91.06-3.31L91.06-3.31Q91.06-1.65 92.25-1.59ZM87.96-18.82L87.96-18.82L87.96-18.82Q87.96-19.95 88.90-20.56L88.90-20.56L88.90-20.56Q89.84-21.17 91.20-21.17L91.20-21.17L91.20-21.17Q92.57-21.17 93.39-20.56L93.39-20.56L93.39-20.56Q94.22-19.95 94.22-18.82L94.22-18.82L94.22-18.82Q94.22-17.69 93.31-17.11L93.31-17.11L93.31-17.11Q92.39-16.53 91.03-16.53L91.03-16.53L91.03-16.53Q89.67-16.53 88.81-17.11L88.81-17.11L88.81-17.11Q87.96-17.69 87.96-18.82ZM95.98-0.87L95.98-0.87L95.98-0.87Q95.29-1.62 94.99-2.81L94.99-2.81L94.99-2.81Q94.68-4.00 94.68-5.95L94.68-5.95L94.68-5.95Q94.68-7.89 95.35-9.66L95.35-9.66L95.35-9.66Q96.02-11.43 97.24-12.70L97.24-12.70L97.24-12.70Q99.73-15.37 103.85-15.37L103.85-15.37L103.85-15.37Q105.33-15.37 106.40-14.88L106.40-14.88L111.36-15.37L109.21-4.06L109.21-4.06Q109.13-3.71 109.13-3.07L109.13-3.07L109.13-3.07Q109.13-2.44 109.52-2.03L109.52-2.03L109.52-2.03Q109.91-1.62 110.49-1.57L110.49-1.57L110.49-1.57Q110.20-0.58 109.14 0L109.14 0L109.14 0Q108.08 0.58 106.89 0.58L106.89 0.58L106.89 0.58Q105.70 0.58 104.91 0.13L104.91 0.13L104.91 0.13Q104.11-0.32 103.88-1.07L103.88-1.07L103.88-1.07Q103.41-0.35 102.43 0.12L102.43 0.12L102.43 0.12Q101.44 0.58 100.12 0.58L100.12 0.58L100.12 0.58Q98.80 0.58 97.73 0.23L97.73 0.23L97.73 0.23Q96.66-0.12 95.98-0.87ZM102.09-12.64L102.09-12.64L102.09-12.64Q101.76-12.12 101.47-11.24L101.47-11.24L101.47-11.24Q101.18-10.35 100.70-7.99L100.70-7.99L100.70-7.99Q100.22-5.63 100.22-3.94L100.22-3.94L100.22-3.94Q100.22-2.26 100.48-1.77L100.48-1.77L100.48-1.77Q100.75-1.28 101.21-1.28L101.21-1.28L101.21-1.28Q102.14-1.28 102.82-2.16L102.82-2.16L102.82-2.16Q103.50-3.05 103.76-4.61L103.76-4.61L105.30-13.11L105.30-13.11Q104.69-13.63 103.98-13.63L103.98-13.63L103.98-13.63Q103.27-13.63 102.85-13.40L102.85-13.40L102.85-13.40Q102.43-13.17 102.09-12.64ZM129.72-2.18L129.72-2.18L129.72-2.18Q129.72-4.21 130.53-8.27L130.53-8.27L126.24-8.27L124.64 0L118.58 0L122.26-19.14L128.38-19.14L126.70-10.59L130.99-10.59L132.59-19.14L138.71-19.14L138.71-19.14Q138.30-16.99 137.78-14.59L137.78-14.59L136.79-9.86L136.79-9.86Q135.69-4.35 135.69-1.94L135.69-1.94L135.69-1.94Q135.69-0.96 136.01-0.41L136.01-0.41L136.01-0.41Q134.56 0.58 132.86 0.58L132.86 0.58L132.86 0.58Q131.17 0.58 130.44-0.23L130.44-0.23L130.44-0.23Q129.72-1.04 129.72-2.18ZM145.72 0.58L145.72 0.58L145.72 0.58Q139.34 0.58 139.34-5.42L139.34-5.42L139.34-5.42Q139.34-9.69 141.69-12.44L141.69-12.44L141.69-12.44Q144.19-15.37 148.51-15.37L148.51-15.37L148.51-15.37Q151.64-15.37 153.24-13.92L153.24-13.92L153.24-13.92Q154.83-12.47 154.83-9.43L154.83-9.43L154.83-9.43Q154.83-4.79 152.34-2.09L152.34-2.09L152.34-2.09Q149.90 0.58 145.72 0.58ZM146.48-12.04L146.48-12.04L146.48-12.04Q146.13-11.25 145.86-10.08L145.86-10.08L145.86-10.08Q145.58-8.90 145.23-7.05L145.23-7.05L145.23-7.05Q144.88-5.19 144.88-2.90L144.88-2.90L144.88-2.90Q144.88-2.15 145.13-1.65L145.13-1.65L145.13-1.65Q145.38-1.16 146.04-1.16L146.04-1.16L146.04-1.16Q146.71-1.16 147.13-1.48L147.13-1.48L147.13-1.48Q147.55-1.80 147.87-2.55L147.87-2.55L147.87-2.55Q148.45-3.89 148.91-6.37L148.91-6.37L148.91-6.37Q149.38-8.85 149.42-9.92L149.42-9.92L149.42-9.92Q149.47-10.99 149.47-11.79L149.47-11.79L149.47-11.79Q149.47-12.59 149.23-13.11L149.23-13.11L149.23-13.11Q149.00-13.63 148.35-13.63L148.35-13.63L148.35-13.63Q147.70-13.63 147.26-13.22L147.26-13.22L147.26-13.22Q146.83-12.82 146.48-12.04ZM157.01-2.90L157.01-2.90L157.01-2.90Q157.01-3.68 157.41-5.66L157.41-5.66L158.95-13.49L157.24-13.49L157.35-14.36L157.35-14.36Q160.83-15.40 164.20-17.95L164.20-17.95L165.59-17.95L164.89-14.79L167.16-14.79L166.90-13.49L164.66-13.49L163.18-5.66L163.18-5.66Q162.81-3.86 162.81-3.25L162.81-3.25L162.81-3.25Q162.81-1.86 164.02-1.57L164.02-1.57L164.02-1.57Q163.73-0.58 162.69 0L162.69 0L162.69 0Q161.65 0.58 160.17 0.58L160.17 0.58L160.17 0.58Q158.69 0.58 157.85-0.35L157.85-0.35L157.85-0.35Q157.01-1.28 157.01-2.90ZM178.64-4.90L178.64-4.90L178.64-4.90Q179.36-4.41 179.36-3.32L179.36-3.32L179.36-3.32Q179.36-2.23 178.81-1.54L178.81-1.54L178.81-1.54Q178.26-0.84 177.36-0.38L177.36-0.38L177.36-0.38Q175.51 0.58 173.51 0.58L173.51 0.58L173.51 0.58Q171.51 0.58 170.33 0.15L170.33 0.15L170.33 0.15Q169.16-0.29 168.37-1.10L168.37-1.10L168.37-1.10Q166.84-2.64 166.84-5.45L166.84-5.45L166.84-5.45Q166.84-9.83 169.21-12.50L169.21-12.50L169.21-12.50Q171.77-15.37 176.20-15.37L176.20-15.37L176.20-15.37Q178.96-15.37 180.32-14.21L180.32-14.21L180.32-14.21Q181.34-13.34 181.34-11.92L181.34-11.92L181.34-11.92Q181.34-6.82 172.52-6.82L172.52-6.82L172.52-6.82Q172.40-6.06 172.40-5.42L172.40-5.42L172.40-5.42Q172.40-4.09 173.00-3.58L173.00-3.58L173.00-3.58Q173.59-3.07 174.70-3.07L174.70-3.07L174.70-3.07Q175.80-3.07 176.97-3.58L176.97-3.58L176.97-3.58Q178.15-4.09 178.64-4.90ZM172.72-8.06L172.72-8.06L172.72-8.06Q174.78-8.06 175.97-9.34L175.97-9.34L175.97-9.34Q177.16-10.56 177.16-12.50L177.16-12.50L177.16-12.50Q177.16-13.17 176.91-13.53L176.91-13.53L176.91-13.53Q176.67-13.89 176.17-13.89L176.17-13.89L176.17-13.89Q175.68-13.89 175.26-13.70L175.26-13.70L175.26-13.70Q174.84-13.51 174.41-12.88L174.41-12.88L174.41-12.88Q173.33-11.43 172.72-8.06ZM189.25-1.59L189.25-1.59L189.25-1.59Q188.35 0.58 185.48 0.58L185.48 0.58L185.48 0.58Q184.03 0.58 183.11-0.43L183.11-0.43L183.11-0.43Q182.35-1.28 182.35-2.23L182.35-2.23L182.35-2.23Q182.35-4.41 183.37-9.16L183.37-9.16L185.48-20.30L191.37-20.88L188.56-6.21L188.56-6.21Q188.06-4.06 188.06-3.31L188.06-3.31L188.06-3.31Q188.06-1.65 189.25-1.59Z" fill="url(#editing-shiny-gradient)"></path></g></g><g filter="url(#editing-shiny2)"><g transform="translate(153.77531552314758, 85.875)"><path d="M1.22-17.98L1.22-17.98L1.22-17.98Q2.06-19.72 4.39-19.72L4.39-19.72L4.39-19.72Q6.73-19.72 7.82-18.37L7.82-18.37L7.82-18.37Q8.90-17.02 8.90-13.92L8.90-13.92L8.90-3.57L15.95-19.11L19.40-19.11L10.38 0L3.60 0L2.73-13.92L2.73-13.92Q2.64-15.46 2.22-16.50L2.22-16.50L2.22-16.50Q1.80-17.55 1.22-17.98ZM25.20-1.59L25.20-1.59L25.20-1.59Q24.30 0.58 21.43 0.58L21.43 0.58L21.43 0.58Q19.95 0.58 19.02-0.43L19.02-0.43L19.02-0.43Q18.24-1.33 18.24-2.23L18.24-2.23L18.24-2.23Q18.24-4.58 19.31-9.16L19.31-9.16L20.39-14.79L26.27-15.37L24.51-6.21L24.51-6.21Q24.01-4.06 24.01-3.31L24.01-3.31L24.01-3.31Q24.01-1.65 25.20-1.59ZM20.91-18.82L20.91-18.82L20.91-18.82Q20.91-19.95 21.85-20.56L21.85-20.56L21.85-20.56Q22.79-21.17 24.16-21.17L24.16-21.17L24.16-21.17Q25.52-21.17 26.35-20.56L26.35-20.56L26.35-20.56Q27.17-19.95 27.17-18.82L27.17-18.82L27.17-18.82Q27.17-17.69 26.26-17.11L26.26-17.11L26.26-17.11Q25.35-16.53 23.98-16.53L23.98-16.53L23.98-16.53Q22.62-16.53 21.76-17.11L21.76-17.11L21.76-17.11Q20.91-17.69 20.91-18.82ZM41.91-12.06L41.91-12.06L41.91-12.06Q41.91-10.85 40.89-10.09L40.89-10.09L40.89-10.09Q39.88-9.34 38.22-9.34L38.22-9.34L38.22-9.34Q37.53-9.34 37.12-9.54L37.12-9.54L37.12-9.54Q37.44-10.29 37.54-11.24L37.54-11.24L37.54-11.24Q37.64-12.18 37.64-12.44L37.64-12.44L37.64-12.44Q37.64-13.66 36.80-13.66L36.80-13.66L36.80-13.66Q36.22-13.66 35.57-12.93L35.57-12.93L35.57-12.93Q34.92-12.21 34.37-11.08L34.37-11.08L34.37-11.08Q33.15-8.47 33.15-5.83L33.15-5.83L33.15-5.83Q33.15-4.38 33.70-3.73L33.70-3.73L33.70-3.73Q34.25-3.07 35.47-3.07L35.47-3.07L35.47-3.07Q37.15-3.07 38.48-4.47L38.48-4.47L38.48-4.47Q38.86-4.90 39.06-5.39L39.06-5.39L39.06-5.39Q40.17-4.81 40.17-3.22L40.17-3.22L40.17-3.22Q40.17-1.59 38.37-0.52L38.37-0.52L38.37-0.52Q36.51 0.58 33.55 0.58L33.55 0.58L33.55 0.58Q27.67 0.58 27.67-5.66L27.67-5.66L27.67-5.66Q27.67-10.21 30.25-12.82L30.25-12.82L30.25-12.82Q32.74-15.37 37.32-15.37L37.32-15.37L37.32-15.37Q41.91-15.37 41.91-12.06ZM43.15-2.90L43.15-2.90L43.15-2.90Q43.15-3.68 43.56-5.66L43.56-5.66L45.09-13.49L43.38-13.49L43.50-14.36L43.50-14.36Q46.98-15.40 50.34-17.95L50.34-17.95L51.74-17.95L51.04-14.79L53.30-14.79L53.04-13.49L50.81-13.49L49.33-5.66L49.33-5.66Q48.95-3.86 48.95-3.25L48.95-3.25L48.95-3.25Q48.95-1.86 50.17-1.57L50.17-1.57L50.17-1.57Q49.88-0.58 48.84 0L48.84 0L48.84 0Q47.79 0.58 46.31 0.58L46.31 0.58L46.31 0.58Q44.83 0.58 43.99-0.35L43.99-0.35L43.99-0.35Q43.15-1.28 43.15-2.90ZM59.36 0.58L59.36 0.58L59.36 0.58Q52.98 0.58 52.98-5.42L52.98-5.42L52.98-5.42Q52.98-9.69 55.33-12.44L55.33-12.44L55.33-12.44Q57.83-15.37 62.15-15.37L62.15-15.37L62.15-15.37Q65.28-15.37 66.87-13.92L66.87-13.92L66.87-13.92Q68.47-12.47 68.47-9.43L68.47-9.43L68.47-9.43Q68.47-4.79 65.98-2.09L65.98-2.09L65.98-2.09Q63.54 0.58 59.36 0.58ZM60.12-12.04L60.12-12.04L60.12-12.04Q59.77-11.25 59.49-10.08L59.49-10.08L59.49-10.08Q59.22-8.90 58.87-7.05L58.87-7.05L58.87-7.05Q58.52-5.19 58.52-2.90L58.52-2.90L58.52-2.90Q58.52-2.15 58.77-1.65L58.77-1.65L58.77-1.65Q59.02-1.16 59.68-1.16L59.68-1.16L59.68-1.16Q60.35-1.16 60.77-1.48L60.77-1.48L60.77-1.48Q61.19-1.80 61.51-2.55L61.51-2.55L61.51-2.55Q62.09-3.89 62.55-6.37L62.55-6.37L62.55-6.37Q63.02-8.85 63.06-9.92L63.06-9.92L63.06-9.92Q63.10-10.99 63.10-11.79L63.10-11.79L63.10-11.79Q63.10-12.59 62.87-13.11L62.87-13.11L62.87-13.11Q62.64-13.63 61.99-13.63L61.99-13.63L61.99-13.63Q61.34-13.63 60.90-13.22L60.90-13.22L60.90-13.22Q60.47-12.82 60.12-12.04ZM79.26-8.15L79.26-8.15L79.26-8.15Q80.30-10.01 80.30-11.89L80.30-11.89L80.30-11.89Q80.30-13.14 79.40-13.14L79.40-13.14L79.40-13.14Q78.71-13.14 77.98-11.95L77.98-11.95L77.98-11.95Q77.23-10.76 77.00-9.22L77.00-9.22L75.49 0L69.48 0.58L72.44-14.79L77.23-15.37L76.70-12.44L76.70-12.44Q78.13-15.37 81.32-15.37L81.32-15.37L81.32-15.37Q83.00-15.37 83.91-14.50L83.91-14.50L83.91-14.50Q84.83-13.63 84.83-11.85L84.83-11.85L84.83-11.85Q84.83-10.06 83.65-8.93L83.65-8.93L83.65-8.93Q82.48-7.80 80.47-7.80L80.47-7.80L80.47-7.80Q79.61-7.80 79.26-8.15ZM92.25-1.59L92.25-1.59L92.25-1.59Q91.35 0.58 88.48 0.58L88.48 0.58L88.48 0.58Q87.00 0.58 86.07-0.43L86.07-0.43L86.07-0.43Q85.29-1.33 85.29-2.23L85.29-2.23L85.29-2.23Q85.29-4.58 86.36-9.16L86.36-9.16L87.43-14.79L93.32-15.37L91.55-6.21L91.55-6.21Q91.06-4.06 91.06-3.31L91.06-3.31L91.06-3.31Q91.06-1.65 92.25-1.59ZM87.96-18.82L87.96-18.82L87.96-18.82Q87.96-19.95 88.90-20.56L88.90-20.56L88.90-20.56Q89.84-21.17 91.20-21.17L91.20-21.17L91.20-21.17Q92.57-21.17 93.39-20.56L93.39-20.56L93.39-20.56Q94.22-19.95 94.22-18.82L94.22-18.82L94.22-18.82Q94.22-17.69 93.31-17.11L93.31-17.11L93.31-17.11Q92.39-16.53 91.03-16.53L91.03-16.53L91.03-16.53Q89.67-16.53 88.81-17.11L88.81-17.11L88.81-17.11Q87.96-17.69 87.96-18.82ZM95.98-0.87L95.98-0.87L95.98-0.87Q95.29-1.62 94.99-2.81L94.99-2.81L94.99-2.81Q94.68-4.00 94.68-5.95L94.68-5.95L94.68-5.95Q94.68-7.89 95.35-9.66L95.35-9.66L95.35-9.66Q96.02-11.43 97.24-12.70L97.24-12.70L97.24-12.70Q99.73-15.37 103.85-15.37L103.85-15.37L103.85-15.37Q105.33-15.37 106.40-14.88L106.40-14.88L111.36-15.37L109.21-4.06L109.21-4.06Q109.13-3.71 109.13-3.07L109.13-3.07L109.13-3.07Q109.13-2.44 109.52-2.03L109.52-2.03L109.52-2.03Q109.91-1.62 110.49-1.57L110.49-1.57L110.49-1.57Q110.20-0.58 109.14 0L109.14 0L109.14 0Q108.08 0.58 106.89 0.58L106.89 0.58L106.89 0.58Q105.70 0.58 104.91 0.13L104.91 0.13L104.91 0.13Q104.11-0.32 103.88-1.07L103.88-1.07L103.88-1.07Q103.41-0.35 102.43 0.12L102.43 0.12L102.43 0.12Q101.44 0.58 100.12 0.58L100.12 0.58L100.12 0.58Q98.80 0.58 97.73 0.23L97.73 0.23L97.73 0.23Q96.66-0.12 95.98-0.87ZM102.09-12.64L102.09-12.64L102.09-12.64Q101.76-12.12 101.47-11.24L101.47-11.24L101.47-11.24Q101.18-10.35 100.70-7.99L100.70-7.99L100.70-7.99Q100.22-5.63 100.22-3.94L100.22-3.94L100.22-3.94Q100.22-2.26 100.48-1.77L100.48-1.77L100.48-1.77Q100.75-1.28 101.21-1.28L101.21-1.28L101.21-1.28Q102.14-1.28 102.82-2.16L102.82-2.16L102.82-2.16Q103.50-3.05 103.76-4.61L103.76-4.61L105.30-13.11L105.30-13.11Q104.69-13.63 103.98-13.63L103.98-13.63L103.98-13.63Q103.27-13.63 102.85-13.40L102.85-13.40L102.85-13.40Q102.43-13.17 102.09-12.64ZM129.72-2.18L129.72-2.18L129.72-2.18Q129.72-4.21 130.53-8.27L130.53-8.27L126.24-8.27L124.64 0L118.58 0L122.26-19.14L128.38-19.14L126.70-10.59L130.99-10.59L132.59-19.14L138.71-19.14L138.71-19.14Q138.30-16.99 137.78-14.59L137.78-14.59L136.79-9.86L136.79-9.86Q135.69-4.35 135.69-1.94L135.69-1.94L135.69-1.94Q135.69-0.96 136.01-0.41L136.01-0.41L136.01-0.41Q134.56 0.58 132.86 0.58L132.86 0.58L132.86 0.58Q131.17 0.58 130.44-0.23L130.44-0.23L130.44-0.23Q129.72-1.04 129.72-2.18ZM145.72 0.58L145.72 0.58L145.72 0.58Q139.34 0.58 139.34-5.42L139.34-5.42L139.34-5.42Q139.34-9.69 141.69-12.44L141.69-12.44L141.69-12.44Q144.19-15.37 148.51-15.37L148.51-15.37L148.51-15.37Q151.64-15.37 153.24-13.92L153.24-13.92L153.24-13.92Q154.83-12.47 154.83-9.43L154.83-9.43L154.83-9.43Q154.83-4.79 152.34-2.09L152.34-2.09L152.34-2.09Q149.90 0.58 145.72 0.58ZM146.48-12.04L146.48-12.04L146.48-12.04Q146.13-11.25 145.86-10.08L145.86-10.08L145.86-10.08Q145.58-8.90 145.23-7.05L145.23-7.05L145.23-7.05Q144.88-5.19 144.88-2.90L144.88-2.90L144.88-2.90Q144.88-2.15 145.13-1.65L145.13-1.65L145.13-1.65Q145.38-1.16 146.04-1.16L146.04-1.16L146.04-1.16Q146.71-1.16 147.13-1.48L147.13-1.48L147.13-1.48Q147.55-1.80 147.87-2.55L147.87-2.55L147.87-2.55Q148.45-3.89 148.91-6.37L148.91-6.37L148.91-6.37Q149.38-8.85 149.42-9.92L149.42-9.92L149.42-9.92Q149.47-10.99 149.47-11.79L149.47-11.79L149.47-11.79Q149.47-12.59 149.23-13.11L149.23-13.11L149.23-13.11Q149.00-13.63 148.35-13.63L148.35-13.63L148.35-13.63Q147.70-13.63 147.26-13.22L147.26-13.22L147.26-13.22Q146.83-12.82 146.48-12.04ZM157.01-2.90L157.01-2.90L157.01-2.90Q157.01-3.68 157.41-5.66L157.41-5.66L158.95-13.49L157.24-13.49L157.35-14.36L157.35-14.36Q160.83-15.40 164.20-17.95L164.20-17.95L165.59-17.95L164.89-14.79L167.16-14.79L166.90-13.49L164.66-13.49L163.18-5.66L163.18-5.66Q162.81-3.86 162.81-3.25L162.81-3.25L162.81-3.25Q162.81-1.86 164.02-1.57L164.02-1.57L164.02-1.57Q163.73-0.58 162.69 0L162.69 0L162.69 0Q161.65 0.58 160.17 0.58L160.17 0.58L160.17 0.58Q158.69 0.58 157.85-0.35L157.85-0.35L157.85-0.35Q157.01-1.28 157.01-2.90ZM178.64-4.90L178.64-4.90L178.64-4.90Q179.36-4.41 179.36-3.32L179.36-3.32L179.36-3.32Q179.36-2.23 178.81-1.54L178.81-1.54L178.81-1.54Q178.26-0.84 177.36-0.38L177.36-0.38L177.36-0.38Q175.51 0.58 173.51 0.58L173.51 0.58L173.51 0.58Q171.51 0.58 170.33 0.15L170.33 0.15L170.33 0.15Q169.16-0.29 168.37-1.10L168.37-1.10L168.37-1.10Q166.84-2.64 166.84-5.45L166.84-5.45L166.84-5.45Q166.84-9.83 169.21-12.50L169.21-12.50L169.21-12.50Q171.77-15.37 176.20-15.37L176.20-15.37L176.20-15.37Q178.96-15.37 180.32-14.21L180.32-14.21L180.32-14.21Q181.34-13.34 181.34-11.92L181.34-11.92L181.34-11.92Q181.34-6.82 172.52-6.82L172.52-6.82L172.52-6.82Q172.40-6.06 172.40-5.42L172.40-5.42L172.40-5.42Q172.40-4.09 173.00-3.58L173.00-3.58L173.00-3.58Q173.59-3.07 174.70-3.07L174.70-3.07L174.70-3.07Q175.80-3.07 176.97-3.58L176.97-3.58L176.97-3.58Q178.15-4.09 178.64-4.90ZM172.72-8.06L172.72-8.06L172.72-8.06Q174.78-8.06 175.97-9.34L175.97-9.34L175.97-9.34Q177.16-10.56 177.16-12.50L177.16-12.50L177.16-12.50Q177.16-13.17 176.91-13.53L176.91-13.53L176.91-13.53Q176.67-13.89 176.17-13.89L176.17-13.89L176.17-13.89Q175.68-13.89 175.26-13.70L175.26-13.70L175.26-13.70Q174.84-13.51 174.41-12.88L174.41-12.88L174.41-12.88Q173.33-11.43 172.72-8.06ZM189.25-1.59L189.25-1.59L189.25-1.59Q188.35 0.58 185.48 0.58L185.48 0.58L185.48 0.58Q184.03 0.58 183.11-0.43L183.11-0.43L183.11-0.43Q182.35-1.28 182.35-2.23L182.35-2.23L182.35-2.23Q182.35-4.41 183.37-9.16L183.37-9.16L185.48-20.30L191.37-20.88L188.56-6.21L188.56-6.21Q188.06-4.06 188.06-3.31L188.06-3.31L188.06-3.31Q188.06-1.65 189.25-1.59Z" fill="url(#editing-shiny-gradient2)"></path></g></g><style>text {
  font-size: 64px;
  font-family: Arial Black;
  dominant-baseline: central;
  text-anchor: middle;
}</style></svg>